<mxfile host="app.diagrams.net" modified="2023-06-15T02:38:00.722Z" agent="Mozilla/5.0 (Windows NT 10.0; Win64; x64; rv:109.0) Gecko/20100101 Firefox/114.0" etag="lMG2YXrLIRSUqPOEMATL" version="21.2.9" type="device">
  <diagram name="PÃ¡gina-1" id="qSmUWDyPwg9WEJ1u0AM0">
    <mxGraphModel dx="1050" dy="530" grid="1" gridSize="10" guides="1" tooltips="1" connect="1" arrows="1" fold="1" page="1" pageScale="1" pageWidth="827" pageHeight="1169" math="0" shadow="0">
      <root>
        <mxCell id="0" />
        <mxCell id="1" parent="0" />
        <mxCell id="Y0H2mVe8evFGLir9ZvDN-13" value="" style="rounded=1;whiteSpace=wrap;html=1;fillColor=#f8cecc;strokeColor=#b85450;" vertex="1" parent="1">
          <mxGeometry x="380" y="70" width="260" height="180" as="geometry" />
        </mxCell>
        <mxCell id="Y0H2mVe8evFGLir9ZvDN-7" value="Actor" style="shape=umlActor;verticalLabelPosition=bottom;verticalAlign=top;html=1;outlineConnect=0;sketch=1;curveFitting=1;jiggle=2;" vertex="1" parent="1">
          <mxGeometry x="100" y="130" width="30" height="60" as="geometry" />
        </mxCell>
        <mxCell id="Y0H2mVe8evFGLir9ZvDN-10" value="DataSaver" style="rounded=0;whiteSpace=wrap;html=1;fillColor=#fff2cc;strokeColor=#d6b656;fillStyle=auto;glass=0;shadow=0;" vertex="1" parent="1">
          <mxGeometry x="450" y="130" width="120" height="60" as="geometry" />
        </mxCell>
        <mxCell id="Y0H2mVe8evFGLir9ZvDN-11" value="" style="endArrow=classic;startArrow=classic;html=1;rounded=0;entryX=0;entryY=0.5;entryDx=0;entryDy=0;sketch=1;curveFitting=1;jiggle=2;" edge="1" parent="1" source="Y0H2mVe8evFGLir9ZvDN-7" target="Y0H2mVe8evFGLir9ZvDN-10">
          <mxGeometry width="50" height="50" relative="1" as="geometry">
            <mxPoint x="330" y="210" as="sourcePoint" />
            <mxPoint x="380" y="160" as="targetPoint" />
          </mxGeometry>
        </mxCell>
        <mxCell id="Y0H2mVe8evFGLir9ZvDN-12" value="Pubsub Message" style="edgeLabel;html=1;align=center;verticalAlign=middle;resizable=0;points=[];" vertex="1" connectable="0" parent="Y0H2mVe8evFGLir9ZvDN-11">
          <mxGeometry x="0.1188" y="-3" relative="1" as="geometry">
            <mxPoint x="-19" y="-3" as="offset" />
          </mxGeometry>
        </mxCell>
        <mxCell id="Y0H2mVe8evFGLir9ZvDN-14" value="&lt;b&gt;Google Cloud Platform&lt;/b&gt;" style="text;html=1;strokeColor=none;fillColor=none;align=center;verticalAlign=middle;whiteSpace=wrap;rounded=0;" vertex="1" parent="1">
          <mxGeometry x="400" y="80" width="140" height="30" as="geometry" />
        </mxCell>
        <mxCell id="Y0H2mVe8evFGLir9ZvDN-15" value="&lt;b&gt;&lt;font style=&quot;font-size: 18px;&quot;&gt;1&lt;/font&gt;&lt;/b&gt;" style="ellipse;whiteSpace=wrap;html=1;aspect=fixed;" vertex="1" parent="1">
          <mxGeometry x="250" y="100" width="40" height="40" as="geometry" />
        </mxCell>
        <mxCell id="Y0H2mVe8evFGLir9ZvDN-16" value="&lt;font size=&quot;1&quot;&gt;&lt;b style=&quot;font-size: 18px;&quot;&gt;2&lt;/b&gt;&lt;/font&gt;" style="ellipse;whiteSpace=wrap;html=1;aspect=fixed;" vertex="1" parent="1">
          <mxGeometry x="250" y="190" width="40" height="40" as="geometry" />
        </mxCell>
        <mxCell id="Y0H2mVe8evFGLir9ZvDN-18" value="" style="text;html=1;strokeColor=#d79b00;fillColor=#ffe6cc;align=center;verticalAlign=middle;whiteSpace=wrap;rounded=0;" vertex="1" parent="1">
          <mxGeometry x="80" y="310" width="450" height="210" as="geometry" />
        </mxCell>
        <mxCell id="Y0H2mVe8evFGLir9ZvDN-19" value="&lt;b&gt;Posibles resultados:&lt;/b&gt;" style="text;html=1;strokeColor=none;fillColor=none;align=center;verticalAlign=middle;whiteSpace=wrap;rounded=0;" vertex="1" parent="1">
          <mxGeometry x="90" y="320" width="150" height="30" as="geometry" />
        </mxCell>
        <mxCell id="Y0H2mVe8evFGLir9ZvDN-20" value="&lt;b&gt;1.- Guardado exitoso&lt;/b&gt;" style="text;html=1;strokeColor=none;fillColor=none;align=center;verticalAlign=middle;whiteSpace=wrap;rounded=0;" vertex="1" parent="1">
          <mxGeometry x="90" y="360" width="130" height="30" as="geometry" />
        </mxCell>
        <mxCell id="Y0H2mVe8evFGLir9ZvDN-21" value="&lt;b&gt;2.- Guardado fallido&lt;/b&gt;" style="text;html=1;strokeColor=none;fillColor=none;align=center;verticalAlign=middle;whiteSpace=wrap;rounded=0;" vertex="1" parent="1">
          <mxGeometry x="95" y="440" width="120" height="30" as="geometry" />
        </mxCell>
      </root>
    </mxGraphModel>
  </diagram>
</mxfile>
